<?xml version="1.0" encoding="iso-8859-1"?>
<!-- Uploaded to: SVG Repo, www.svgrepo.com, Generator: SVG Repo Mixer Tools -->
<svg fill="#000000" height="800px" width="800px" version="1.1" id="Layer_1" xmlns="http://www.w3.org/2000/svg" xmlns:xlink="http://www.w3.org/1999/xlink" 
	 viewBox="0 0 512 512" xml:space="preserve">
<g>
	<g>
		<path d="M425.4,135.441h-84.044v-30.562c0-9.042-7.33-16.373-16.372-16.373H128.519V76.407
			c8.224-0.869,14.633-7.824,14.633-16.278c0-6.64-3.96-12.344-9.64-14.913c2.382-4.352,3.739-9.345,3.739-14.656
			C137.251,13.683,123.567,0,106.689,0C89.811,0,76.129,13.683,76.129,30.561c0,5.311,1.357,10.304,3.739,14.656
			c-5.68,2.569-9.64,8.273-9.64,14.913c0,8.454,6.409,15.408,14.633,16.278v413.764c0,12.056,9.773,21.829,21.829,21.829
			s21.829-9.773,21.829-21.829V288.247h62.214v30.561c0,9.042,7.33,16.372,16.373,16.372H425.4c9.042,0,16.372-7.33,16.372-16.372
			V151.813C441.772,142.771,434.443,135.441,425.4,135.441z"/>
	</g>
</g>
</svg>